<svg width="14" height="14" viewBox="0 0 14 14" fill="none" xmlns="http://www.w3.org/2000/svg">
<path d="M4.40426 12.393C9.68598 12.393 12.5757 8.17369 12.5757 4.51586C12.5757 4.39725 12.5729 4.27599 12.5675 4.15738C13.1296 3.7655 13.6147 3.28009 14 2.72398C13.4765 2.94852 12.9206 3.09516 12.3514 3.1589C12.9507 2.81261 13.3995 2.2686 13.6145 1.62771C13.0507 1.94981 12.4341 2.17702 11.7912 2.2996C11.358 1.8559 10.7852 1.56212 10.1615 1.46368C9.53772 1.36523 8.89769 1.46761 8.34035 1.75498C7.783 2.04236 7.33938 2.49872 7.07808 3.05351C6.81677 3.6083 6.75233 4.23062 6.89473 4.82426C5.75312 4.76904 4.6363 4.48316 3.61666 3.98516C2.59702 3.48716 1.69732 2.78816 0.975898 1.93348C0.609233 2.54288 0.497033 3.26401 0.662101 3.95029C0.82717 4.63658 1.25712 5.23653 1.86457 5.62821C1.40853 5.61425 0.962486 5.49589 0.563281 5.28291V5.31717C0.562873 5.9567 0.792224 6.57662 1.21235 7.07157C1.63247 7.56652 2.21744 7.90594 2.86781 8.03214C2.44537 8.14356 2.00199 8.1598 1.57199 8.07959C1.75552 8.62958 2.11258 9.11062 2.59337 9.45558C3.07415 9.80053 3.65465 9.99218 4.25387 10.0038C3.23658 10.7741 1.97993 11.1919 0.686328 11.1899C0.456917 11.1896 0.227733 11.176 0 11.1493C1.31417 11.9621 2.84289 12.3937 4.40426 12.393Z" fill="white" fill-opacity="0.5"/>
</svg>
