<svg width="14" height="14" viewBox="0 0 14 14" fill="none" xmlns="http://www.w3.org/2000/svg">
<path d="M7 1.37579C8.87031 1.37579 9.0918 1.3837 9.82734 1.41533C10.5109 1.44432 10.8801 1.55503 11.1262 1.64729C11.4516 1.76854 11.6867 1.91615 11.9301 2.15074C12.1762 2.38797 12.3266 2.61202 12.4523 2.9257C12.548 3.16293 12.6629 3.52141 12.693 4.17774C12.7258 4.88943 12.734 5.10294 12.734 6.90326C12.734 8.70621 12.7258 8.91971 12.693 9.62877C12.6629 10.2877 12.548 10.6436 12.4523 10.8808C12.3266 11.1945 12.1734 11.4212 11.9301 11.6558C11.684 11.893 11.4516 12.038 11.1262 12.1592C10.8801 12.2515 10.5082 12.3622 9.82734 12.3912C9.08906 12.4228 8.86758 12.4307 7 12.4307C5.12969 12.4307 4.9082 12.4228 4.17266 12.3912C3.48906 12.3622 3.11992 12.2515 2.87383 12.1592C2.54844 12.038 2.31328 11.8904 2.06992 11.6558C1.82383 11.4185 1.67344 11.1945 1.54766 10.8808C1.45195 10.6436 1.33711 10.2851 1.30703 9.62877C1.27422 8.91708 1.26602 8.70357 1.26602 6.90326C1.26602 5.10031 1.27422 4.8868 1.30703 4.17774C1.33711 3.51877 1.45195 3.16293 1.54766 2.9257C1.67344 2.61202 1.82656 2.38534 2.06992 2.15074C2.31602 1.91351 2.54844 1.76854 2.87383 1.64729C3.11992 1.55503 3.4918 1.44432 4.17266 1.41533C4.9082 1.3837 5.12969 1.37579 7 1.37579ZM7 0.160645C5.09961 0.160645 4.86172 0.168552 4.11523 0.200183C3.37148 0.231814 2.86016 0.347793 2.41719 0.513854C1.95508 0.687823 1.56406 0.917146 1.17578 1.29408C0.784766 1.66837 0.546875 2.04531 0.366406 2.48814C0.194141 2.91779 0.0738281 3.40806 0.0410156 4.12503C0.00820313 4.84726 0 5.07658 0 6.90853C0 8.74047 0.00820313 8.9698 0.0410156 9.68939C0.0738281 10.4064 0.194141 10.8993 0.366406 11.3263C0.546875 11.7717 0.784766 12.1487 1.17578 12.523C1.56406 12.8973 1.95508 13.1292 2.41445 13.3006C2.86016 13.4666 3.36875 13.5826 4.1125 13.6142C4.85898 13.6459 5.09688 13.6538 6.99727 13.6538C8.89766 13.6538 9.13555 13.6459 9.88203 13.6142C10.6258 13.5826 11.1371 13.4666 11.5801 13.3006C12.0395 13.1292 12.4305 12.8973 12.8188 12.523C13.207 12.1487 13.4477 11.7717 13.6254 11.3289C13.7977 10.8993 13.918 10.409 13.9508 9.69203C13.9836 8.97243 13.9918 8.74311 13.9918 6.91116C13.9918 5.07922 13.9836 4.8499 13.9508 4.1303C13.918 3.41334 13.7977 2.92042 13.6254 2.49341C13.4531 2.04531 13.2152 1.66837 12.8242 1.29408C12.4359 0.919781 12.0449 0.687823 11.5855 0.51649C11.1398 0.350429 10.6313 0.23445 9.8875 0.202819C9.13828 0.168552 8.90039 0.160645 7 0.160645Z" fill="white" fill-opacity="0.5"/>
<path d="M7 3.44434C5.01484 3.44434 3.4043 4.99688 3.4043 6.91053C3.4043 8.82419 5.01484 10.3767 7 10.3767C8.98516 10.3767 10.5957 8.82419 10.5957 6.91053C10.5957 4.99688 8.98516 3.44434 7 3.44434ZM7 9.15895C5.71211 9.15895 4.66758 8.15204 4.66758 6.91053C4.66758 5.66903 5.71211 4.66212 7 4.66212C8.28789 4.66212 9.33242 5.66903 9.33242 6.91053C9.33242 8.15204 8.28789 9.15895 7 9.15895Z" fill="white" fill-opacity="0.5"/>
<path d="M11.5773 3.30725C11.5773 3.75507 11.2 4.11596 10.7379 4.11596C10.273 4.11596 9.89844 3.75244 9.89844 3.30725C9.89844 2.85943 10.2758 2.49854 10.7379 2.49854C11.2 2.49854 11.5773 2.86206 11.5773 3.30725Z" fill="white" fill-opacity="0.5"/>
</svg>
